<svg width="32" height="32" viewBox="0 0 32 32" fill="none" xmlns="http://www.w3.org/2000/svg">
<rect width="32" height="32" rx="16" fill="#FF5CEF"/>
<path fill-rule="evenodd" clip-rule="evenodd" d="M10.1429 12.1137C11.5238 12.2126 12.8002 12.7818 13.7787 13.7369C14.1239 14.0744 14.3942 14.4109 14.6595 14.8356L14.6665 14.8466L14.6667 14.8469L14.667 14.8474L14.6673 14.8479L14.6676 14.8483L14.6677 14.8485C14.7272 14.9425 14.8076 15.0693 14.8518 15.1374C15.0353 15.4205 15.2789 15.854 15.4683 16.2391C15.5196 16.344 15.564 16.4281 15.567 16.4251C15.5778 16.4152 15.5295 15.9599 15.5048 15.8372C15.5009 15.8204 15.5019 15.8055 15.5058 15.8055C15.5098 15.8055 15.5354 15.8253 15.563 15.8491C15.7179 15.9807 15.9526 16.0926 16.1726 16.1401C16.578 16.2282 16.9657 16.1619 17.2892 15.9471C17.372 15.8926 17.5358 15.7323 17.5772 15.665C17.594 15.6383 17.6088 15.6175 17.6117 15.6175C17.6147 15.6175 17.6374 15.6591 17.663 15.7085C17.7469 15.8788 17.8544 16.0114 17.9905 16.1144C18.0803 16.1826 18.2361 16.2608 18.3318 16.2856C18.4284 16.3103 18.5971 16.3153 18.6859 16.2965C18.7263 16.2876 18.7609 16.2826 18.7628 16.2846C18.7648 16.2856 18.7569 16.3222 18.7461 16.3658C18.7135 16.4994 18.7027 16.6607 18.7224 16.7241C18.7303 16.7498 18.7865 16.6924 18.8743 16.5667C19.0351 16.341 19.2057 16.1351 19.4898 15.8253C19.5726 15.7353 19.6811 15.6155 19.7324 15.5581C20.2887 14.9316 20.9338 14.4792 21.7002 14.1774C23.2715 13.5587 25.0391 13.7735 26.3175 14.7376C26.568 14.9266 26.86 15.2047 27.0425 15.4294C27.6343 16.1549 27.9637 17.017 27.9963 17.9266C28.013 18.373 27.9736 18.7541 27.869 19.1807C27.7359 19.7171 27.4794 20.2744 27.149 20.7416C26.6657 21.4235 26.0225 21.9689 25.2611 22.343C24.8685 22.536 24.2806 22.7518 23.9443 22.827L23.9397 22.8281L23.9322 22.8299L23.9234 22.832C23.9125 22.8346 23.9009 22.8373 23.8894 22.84C23.8613 22.8465 23.8336 22.853 23.816 22.8577C23.7243 22.8815 23.4639 22.93 23.3179 22.9507C22.9875 22.9992 22.8819 23.0062 22.4617 23.0062H22.0593L22.0622 23.0309C22.0652 23.0517 22.0761 23.0596 22.1293 23.0784C22.223 23.1121 22.3996 23.1566 22.5475 23.1833C22.7823 23.2269 23.2321 23.2675 23.4738 23.2685C23.5211 23.2685 23.5596 23.2714 23.5596 23.2744C23.5596 23.2892 23.3919 23.4931 23.2804 23.6159C22.9559 23.9692 22.5209 24.3117 22.0159 24.6106C21.8275 24.7215 21.4043 24.9362 21.1893 25.0293C20.6212 25.2757 20.0116 25.4717 19.2442 25.6528C18.463 25.8379 17.667 25.9478 16.798 25.9904C16.5395 26.0032 15.7879 26.0032 15.5255 25.9904C13.0616 25.8716 10.8491 25.1461 9.41988 23.987C9.30349 23.892 9.22359 23.8227 9.21965 23.8109C9.21768 23.8069 9.27489 23.8059 9.34788 23.8089C9.49879 23.8158 9.86178 23.8 10.0561 23.7772C10.2267 23.7584 10.2484 23.7525 10.2484 23.7277C10.2484 23.7099 10.2336 23.7079 10.0462 23.6921C8.832 23.5911 7.6158 23.2318 6.78823 22.73C6.57814 22.6033 6.42821 22.4925 6.07805 22.2064C5.44282 21.6888 4.92892 21.0355 4.56396 20.2793C4.24733 19.6251 4.06683 18.954 4.00962 18.2216C3.99679 18.0513 3.99679 17.5792 4.00962 17.4129C4.10431 16.1935 4.54719 15.0988 5.32741 14.1576C5.46057 13.9972 5.83836 13.6162 6.00209 13.4776C6.94704 12.6788 8.10406 12.2057 9.33604 12.1147C9.50274 12.1028 9.9762 12.1018 10.1429 12.1137ZM9.43467 13.6656C9.40903 13.5657 9.47807 13.4479 9.57967 13.4162C9.60532 13.4083 9.63688 13.4014 9.64872 13.4014C9.70395 13.3994 9.79174 13.433 10.0018 13.537C10.1261 13.5993 10.3688 13.7181 10.5404 13.8012C10.7978 13.926 10.8915 13.9774 11.078 14.0962C11.441 14.3278 11.5544 14.4149 11.584 14.4881C11.6146 14.5594 11.5692 14.595 11.4587 14.5851C11.3236 14.5733 10.7564 14.406 10.5749 14.3238C10.3924 14.2417 9.54811 13.824 9.51654 13.8003C9.47709 13.7706 9.44947 13.725 9.43467 13.6656ZM23.385 15.2374C23.5704 15.1473 24.4315 14.8821 24.7008 14.8316C24.8024 14.8118 25.0194 14.8158 25.0697 14.8375C25.0894 14.8464 25.1239 14.8702 25.1466 14.89C25.2186 14.9553 25.2127 15.0375 25.1289 15.1157C25.0224 15.2156 24.8409 15.2711 24.4769 15.3156C24.253 15.3423 23.4392 15.4195 23.3781 15.4195C23.3021 15.4195 23.2735 15.4017 23.2735 15.3562C23.2735 15.3087 23.3041 15.276 23.385 15.2374ZM9.88744 15.085C9.95352 14.9563 10.1498 14.8732 10.4516 14.8465C10.642 14.8296 11.3483 14.8366 11.3483 14.8563C11.3483 14.8821 10.9567 15.0959 10.7357 15.1909C10.6026 15.2473 10.4359 15.3027 10.3303 15.3245C10.2346 15.3443 10.0946 15.3453 10.0295 15.3255C9.89533 15.2859 9.83614 15.1859 9.88744 15.085ZM23.5734 15.8283C23.5655 15.7996 23.5694 15.7956 23.6109 15.7857C23.6592 15.7739 23.82 15.7749 23.9147 15.7857C24.2619 15.8293 24.613 15.957 24.7541 16.0926C24.8202 16.1549 24.8182 16.2173 24.7501 16.2529C24.7126 16.2737 24.6959 16.2757 24.5607 16.2747C24.394 16.2747 24.2855 16.2529 24.105 16.1856C23.8427 16.0876 23.5961 15.9223 23.5734 15.8283ZM20.6103 23.7643C20.7829 23.6258 21.0847 23.3635 21.1528 23.2942C21.2189 23.2269 21.2416 23.217 21.2771 23.2427C21.2948 23.2566 21.2948 23.2596 21.2514 23.3447C21.0492 23.7455 20.6162 24.2018 20.122 24.5354C19.8064 24.7472 19.6792 24.8125 19.328 24.9382C18.7628 25.1401 18.1611 25.2638 17.4786 25.3193C17.2734 25.3351 16.6372 25.3351 16.4429 25.3183C15.8984 25.2728 15.4565 25.1906 15.0195 25.054C14.6585 24.9412 14.4534 24.8442 14.1446 24.6383C13.685 24.3325 13.3289 23.9682 13.1168 23.5872C13.0872 23.5337 13.0833 23.5209 13.0931 23.5001C13.0991 23.4872 13.1119 23.4763 13.1208 23.4763C13.1306 23.4763 13.175 23.511 13.2184 23.5545C13.3151 23.6485 13.5222 23.8049 13.7501 23.9564C13.9552 24.0929 14.0667 24.1553 14.2886 24.2563C14.3833 24.2998 14.4958 24.3523 14.5402 24.375C15.0442 24.6294 15.7376 24.8036 16.4873 24.863C16.7092 24.8808 17.2685 24.8788 17.5013 24.858C18.1404 24.8036 18.6662 24.6898 19.2886 24.471C19.8577 24.2721 20.2246 24.0761 20.6103 23.7643Z" fill="white"/>
<path fill-rule="evenodd" clip-rule="evenodd" d="M16.798 6.0206C17.4904 6.08098 18.1158 6.1948 18.7411 6.37692C21.1222 7.0668 23.1601 8.65341 24.4591 10.8289C24.8862 11.5455 25.2305 12.3285 25.4781 13.148C25.5432 13.3628 25.6507 13.7696 25.6507 13.7993C25.6507 13.8151 25.6477 13.8151 25.6142 13.8003C24.032 13.1193 22.2043 13.2549 20.6941 14.1655C20.3085 14.3971 20.0066 14.6317 19.6792 14.9543C19.3418 15.2869 19.038 15.669 18.9226 15.9085C18.8989 15.957 18.8802 15.9679 18.7914 15.9886C18.5794 16.0391 18.3426 15.9481 18.1345 15.7353C17.9895 15.5878 17.8642 15.3829 17.7952 15.184C17.7755 15.1275 17.7597 15.0781 17.7597 15.0751C17.7597 15.0711 17.7873 15.0533 17.8218 15.0365C17.8919 14.9999 18.0901 14.8524 18.2095 14.7485C18.3772 14.602 18.3821 14.5099 18.2282 14.4396C18.0714 14.3674 17.7676 14.3139 17.4539 14.304C17.2616 14.2981 17.1669 14.308 17.1037 14.3436C17.0525 14.3723 17.0268 14.4208 17.0347 14.4733C17.0534 14.598 17.3129 14.9355 17.4717 15.0414L17.4745 15.0433C17.4988 15.0594 17.5122 15.0683 17.5156 15.0801C17.5199 15.0949 17.5084 15.1142 17.4826 15.1577L17.4805 15.1612C17.3306 15.4126 17.0436 15.6195 16.7289 15.7016C16.3955 15.7887 16.0897 15.7481 15.7938 15.5779C15.7031 15.5264 15.5117 15.3829 15.4121 15.2918C15.3362 15.2226 15.3362 15.2226 15.2849 15.0909C15.1704 14.7999 15.0225 14.5366 14.7927 14.2199C13.8744 12.953 12.5151 12.078 10.9882 11.7722C10.5759 11.69 10.2938 11.6594 9.86375 11.6514C9.1437 11.6376 8.47987 11.7366 7.80716 11.9573C7.43826 12.078 7.01313 12.2641 6.71327 12.4344C6.67875 12.4542 6.64817 12.469 6.6462 12.466C6.63929 12.4601 6.77837 12.1394 6.88293 11.9207C7.32088 11.0002 7.87423 10.1648 8.55582 9.39673C8.70575 9.22649 9.19795 8.73358 9.36563 8.58413C10.0798 7.94869 10.8215 7.44489 11.653 7.03215C12.8702 6.42839 14.119 6.09484 15.491 6.00675C15.712 5.99289 16.582 6.0018 16.798 6.0206ZM12.959 11.4891C12.886 11.5327 12.8525 11.5921 12.8525 11.6792C12.8525 11.7346 12.8574 11.7514 12.8821 11.793C12.9087 11.8355 12.9422 11.8613 13.1494 11.9999C13.4759 12.2176 13.6495 12.3542 13.9276 12.6086C14.2216 12.8778 14.5411 13.2311 14.7147 13.4806C14.7897 13.5894 14.8311 13.631 14.8814 13.6518C14.9761 13.6924 15.0965 13.6528 15.1507 13.5637C15.1764 13.5221 15.1803 13.5063 15.1803 13.4459C15.1803 13.3836 15.1764 13.3687 15.1428 13.3073C15.0402 13.1203 14.7424 12.7679 14.4149 12.4453C14.0637 12.0998 13.7806 11.8672 13.4127 11.6247C13.1938 11.4802 13.1651 11.4664 13.0803 11.4624C13.0172 11.4594 13.0054 11.4624 12.959 11.4891ZM20.4081 13.2885C20.8756 12.9827 21.5612 12.6877 21.8946 12.6501C22.0129 12.6363 22.0869 12.6571 22.1451 12.7194C22.1974 12.7748 22.2112 12.8115 22.2063 12.8857C22.1994 13.0104 22.1303 13.0738 21.9725 13.0995C21.6786 13.147 21.1834 13.3529 20.7859 13.5914C20.5837 13.7131 20.4407 13.8181 20.3223 13.9329C20.2158 14.0348 20.1812 14.0536 20.1053 14.0536C19.9366 14.0536 19.84 13.8755 19.9208 13.7151C19.9702 13.6171 20.1595 13.4528 20.4081 13.2885Z" fill="white"/>
</svg>
